<svg width="22" height="21" viewBox="0 0 22 21" fill="none" xmlns="http://www.w3.org/2000/svg">
<g clip-path="url(#clip0_12_46)">
<path d="M19.4578 3.51247C18.9691 3.00415 18.3889 2.60092 17.7503 2.3258C17.1117 2.05069 16.4272 1.90909 15.7359 1.90909C15.0446 1.90909 14.3601 2.05069 13.7215 2.3258C13.0829 2.60092 12.5322 3.30168 12.0435 3.81L10.9997 5.28777L9.73072 3.51247C8.91219 2.3258 7.6596 1.90962 6.26361 1.90962C4.86761 1.90962 3.52879 2.48618 2.54168 3.51247C1.55456 4.53876 1 5.93071 1 7.38211C1 8.8335 1.55456 10.2254 2.54168 11.2517L3.55588 12.3062L10.9997 20.0455L18.4436 12.3062L19.4578 11.2517C19.9467 10.7437 20.3346 10.1404 20.5992 9.47644C20.8638 8.81247 21 8.10081 21 7.38211C21 6.6634 20.8638 5.95174 20.5992 5.28777C20.3346 4.62381 19.9467 4.02056 19.4578 3.51247Z" stroke="black" stroke-width="2" stroke-linecap="round" stroke-linejoin="round"/>
</g>
<defs>
<clipPath id="clip0_12_46">
<rect width="22" height="21" fill="white"/>
</clipPath>
</defs>
</svg>
