<svg width="15" height="16" viewBox="0 0 15 16" fill="none" xmlns="http://www.w3.org/2000/svg">
<path d="M13.125 6.66666C13.125 11.3333 7.5 15.3333 7.5 15.3333C7.5 15.3333 1.875 11.3333 1.875 6.66666C1.875 5.07536 2.46763 3.54923 3.52252 2.42402C4.57742 1.2988 6.00816 0.666656 7.5 0.666656C8.99184 0.666656 10.4226 1.2988 11.4775 2.42402C12.5324 3.54923 13.125 5.07536 13.125 6.66666Z" stroke="black" stroke-linecap="round" stroke-linejoin="round"/>
<path d="M7.5 9C8.88071 9 10 7.88071 10 6.5C10 5.11929 8.88071 4 7.5 4C6.11929 4 5 5.11929 5 6.5C5 7.88071 6.11929 9 7.5 9Z" stroke="black" stroke-linecap="round" stroke-linejoin="round"/>
</svg>
